<svg width="80" height="80" viewBox="0 0 80 80" fill="none" xmlns="http://www.w3.org/2000/svg">
<path d="M26.875 52.8H19.525C18.0938 52.8 16.925 53.8875 16.925 55.225V56.8688H48.2688V55.225C48.2688 53.8938 47.0938 52.8 45.6625 52.8H38.125V48.6188L61.225 48.625C63.1813 48.625 64.7875 47.0188 64.7875 45.0625L64.7938 7.02501C64.7938 5.06251 63.1875 3.45626 61.2313 3.45626L3.975 3.44376C2.0125 3.44376 0.406253 5.05001 0.406253 7.00626L0.393753 45.05C0.393753 47.0125 2 48.6188 3.9625 48.6188L27 48.625L26.875 52.8Z" fill="#B0BEC5"/>
<path d="M56.8438 60.7063L8.94376 60.6938C8.275 60.6938 7.61875 61.225 7.4875 61.8813L4.4 75.6063C4.26875 76.2563 5.03125 76.525 5.7 76.525L60.0688 76.5375C60.7313 76.5375 61.3813 76.2688 61.25 75.6188L58.2938 61.8875C58.1562 61.2438 57.5063 60.7063 56.8438 60.7063Z" fill="#B0BEC5"/>
<path d="M11.6937 64.175L54.4375 64.1813C55.1062 64.1813 55.65 64.725 55.65 65.3938C55.65 66.0625 55.1062 66.6063 54.4375 66.6063L11.6937 66.6C11.0312 66.6 10.4812 66.0563 10.4812 65.3875C10.4812 64.7125 11.0312 64.175 11.6937 64.175Z" fill="white"/>
<path d="M55.6 72.45L10.5313 72.4375C9.86251 72.4375 9.31876 71.8937 9.31876 71.225C9.31876 70.5562 9.86251 70.0125 10.5313 70.0125L55.6 70.025C56.2625 70.025 56.8063 70.5688 56.8063 71.2375C56.8125 71.9063 56.2688 72.45 55.6 72.45Z" fill="white"/>
<path d="M78.1312 71.4313C75.3687 73.65 71.525 72.4313 69.0312 68.7125C66.5437 64.9875 64.7562 63.0688 67.0125 61.5563C69.2687 60.0438 72.8 60.2813 76.6437 63.175C79.5937 65.3938 80.2562 69.7313 78.1312 71.4313Z" fill="#B0BEC5"/>
<path d="M26.875 48.75H38.125V50.625H26.875V48.75Z" fill="#78909C"/>
<path d="M4.39999 75.6188H61.2562V76.8688H4.39999V75.6188Z" fill="#78909C"/>
<path d="M78.1438 71.4312C78.1438 71.4312 75.3937 73.9875 71.6875 71.4375C68.2375 69.0625 66.3 64.425 66.1312 63.9812C66.1125 63.9937 68 64.8125 69.5938 66.225C70.5438 67.0625 72.3 69.3937 74.2188 70.5937C75.825 71.6 77.65 71.5937 78.1438 71.4312Z" fill="#78909C"/>
<path d="M9.53124 39.1312C8.13749 39.1312 6.96249 38.0062 6.96249 36.5562V11.9312C6.96249 10.475 8.14374 9.16875 9.53124 9.16875H55.4562C56.8375 9.16875 58.0375 10.475 58.0375 11.9312V36.5562C58.0375 38.0125 56.8375 39.1312 55.4562 39.1312H9.53124Z" fill="#78909C"/>
<path d="M31.8188 7.825L21.5438 42.2562L5.625 42.0812V8.16875L31.8188 7.825Z" fill="#ECEFF1"/>
<path d="M56.25 11.875V36.25H8.75V11.875H56.25ZM56.3187 8.75H8.65625C7.2125 8.75 5.625 9.975 5.625 11.4562V36.5938C5.625 38.0812 7.2125 39.375 8.65625 39.375H56.3125C57.75 39.375 59.375 38.0812 59.375 36.5938V11.4562C59.375 9.96875 57.8937 8.75 56.4625 8.75H56.3187Z" fill="#78909C"/>
</svg>
